<svg width="25" height="25" viewBox="0 0 25 25" fill="none" xmlns="http://www.w3.org/2000/svg">
<path d="M19.6429 6.25H25V21.0938C25 22.168 24.5536 23.0794 23.6607 23.8281C22.805 24.6094 21.7634 25 20.5357 25H4.46429C3.23661 25 2.17634 24.6094 1.28349 23.8281C0.427828 23.0794 0 22.168 0 21.0938V6.25H5.35714C5.35714 4.52474 6.04539 3.0599 7.42187 1.85547C8.83557 0.618488 10.5283 0 12.5 0C14.4717 0 16.1459 0.618488 17.5223 1.85547C18.936 3.0599 19.6429 4.52474 19.6429 6.25ZM15.625 3.51562C14.7693 2.73438 13.7277 2.34375 12.5 2.34375C11.2723 2.34375 10.2121 2.73438 9.3192 3.51562C8.46354 4.26433 8.03571 5.17578 8.03571 6.25H16.9643C16.9643 5.17578 16.5179 4.26433 15.625 3.51562ZM22.3214 21.0938V8.59375H19.6429V10.5469C19.6429 10.8724 19.5127 11.1491 19.2523 11.377C18.9919 11.6049 18.6756 11.7188 18.3036 11.7188C17.9316 11.7188 17.6153 11.6049 17.3549 11.377C17.0944 11.1491 16.9643 10.8724 16.9643 10.5469V8.59375H8.03571V10.5469C8.03571 10.8724 7.9055 11.1491 7.64509 11.377C7.38467 11.6049 7.06846 11.7188 6.69643 11.7188C6.3244 11.7188 6.00819 11.6049 5.74777 11.377C5.48736 11.1491 5.35714 10.8724 5.35714 10.5469V8.59375H2.67857V21.0938C2.67857 21.5169 2.84599 21.875 3.1808 22.168C3.55283 22.4935 3.98066 22.6562 4.46429 22.6562H20.5357C21.0193 22.6562 21.4286 22.4935 21.7634 22.168C22.1354 21.875 22.3214 21.5169 22.3214 21.0938Z" fill="black"/>
</svg>
